<?xml version="1.0" encoding="UTF-8"?>
<svg id="Livello_2" data-name="Livello 2" xmlns="http://www.w3.org/2000/svg" viewBox="0 0 747.25 749.32">
  <defs>
    <style>
      .cls-1 {
        fill: #efb65c;
      }
    </style>
  </defs>
  <g id="Livello_1-2" data-name="Livello 1">
    <g>
      <path class="cls-1" d="M349.45,265.83l2.7-23.82,5.74-65.45,15.26-167.35c.47-5.18-4.57-8.73-8.62-9.18-3.44-.38-8.48,2.69-10.28,6.73l-.88,64.35-2.91,142.51-1.19,30.61.19,21.6Z"/>
      <path class="cls-1" d="M379.51,228.78l12.97-46.5,9.3-32.8,16.71-58.41,20.3-72.5c1.28-4.55,1.71-8.56-2.59-12.1-2.22-1.83-6.68-3.01-10.1-1.35-3.71,1.8-4.65,5.3-5.57,9.76l-34.75,169.86-10.57,48.62c-1.89,8.68-4.69,16.69-4.92,25.89,4.08-9.8,6.2-19.62,9.23-30.46Z"/>
      <path class="cls-1" d="M330.18,264.47l-4.48-45.99-13.12-137.41-6.29-63.05c-.53-5.33-3.63-9.85-8.7-10.23-3.69-.28-10.85,3.62-10.11,8.56l4.47,29.78,26.39,153.29,11.82,75.12.93.46-.91-10.54Z"/>
      <path class="cls-1" d="M390.24,260.86l6.49-11.41,28.08-57.01,71.05-142.57,7.74-16.5c2.2-4.69-1.77-9.47-5.54-11.11s-9.9-.38-11.73,4.19l-20.8,52.14-38.12,92.74-32.82,77.17-4.36,12.36Z"/>
      <path class="cls-1" d="M311.46,280.97c.45-5.15-.87-8.15-2.3-12.23l-48.67-169.71-17.99-63.08c-1.74-6.1-6.76-9.86-12.68-7.78s-7.44,8.12-5.19,14.16l22.29,59.82,39.7,108,8.71,24.53,16.14,46.29Z"/>
      <path class="cls-1" d="M412.8,259.78c9.53-8.09,14.69-18.13,21.77-27.3l19.49-25.74,108.15-142.58c3.06-4.03.45-9.34-2.69-12.13-2.28-2.03-9.11-3.87-11.55-.08l-29.82,46.33-70.65,109.15-34.7,52.35Z"/>
      <path class="cls-1" d="M275.78,251.3l-55.59-112.21-32.67-64.41-6.5-12.38c-2.49-4.75-8.16-5.25-11.88-2.69-6.36,4.39-5.62,9.97-2.24,15.57l23.03,38.07,86.54,148.19,20.91,37.76,1.08-.84-22.68-47.04Z"/>
      <path class="cls-1" d="M429.07,269.53l1.39.35,78.54-70.74,11.19-10.1,68.25-60.57,28.1-25.08c3.65-3.26,1.71-9.35-.95-12.32-2.28-2.55-8.1-5.32-11.36-1.97l-22.24,22.84-23.53,24.46-22.53,23.48-30.42,31.54-25.04,26.13-51.39,51.99Z"/>
      <path class="cls-1" d="M241,261.72l40.3,49.68,1.35-1.19-50.25-69.41-38.51-51.67-65.97-86.87c-3.53-4.64-10.63-1.48-12.89,1.24-3.87,4.53-3.42,10.18.77,13.84l30.93,34.98,16.1,18.1,60.01,69.66,18.16,21.64Z"/>
      <path class="cls-1" d="M476.75,262.11l72.14-43.27,108.57-63.17c5.81-3.38,9.51-7.66,5.67-14.21-2.86-4.86-8.95-6.3-14.18-2.69l-40.38,27.78-119.29,83.46-35.86,24.94c9.18-2.46,15.31-8.04,23.34-12.85Z"/>
      <path class="cls-1" d="M242.92,300.66l-30.69-29.79-24.04-23.01-43.57-40.45-62.1-56.72c-3.57-3.26-10.22.77-11.83,3.54-2.05,3.52-3.02,9.04,1.11,12.29,53.02,41.74,106,82.54,156.83,126.8l31.62,27.54,11.97,10.61.98-1.04-30.28-29.77Z"/>
      <path class="cls-1" d="M467.32,290.21c16.3-4.72,29.73-10.91,44.92-16.22l180.95-63.35c5.46-1.91,8.9-6.02,8.01-11.17-.62-3.61-6.15-10.06-11.22-7.84l-146,64.09-68.26,29.77-8.41,4.73Z"/>
      <path class="cls-1" d="M262.47,349.41l.32-1.63-71.27-48.12-44.09-29.13-95.44-61.23c-4.96-3.18-8.96-5.23-14.1.01-1.55,1.59-3.36,5.56-2.96,7.97.33,1.96,2.23,5.44,4.49,6.67l97.85,53.09,94.06,53.72,31.15,18.65Z"/>
      <path class="cls-1" d="M568.68,292.19l148.35-21.8c4.86-.71,8.48-1.2,10.53-5.7,1.57-3.43.44-8.42-2.33-11.06-3.43-3.27-6.34-2.51-11.04-1.44l-235.37,53.4,1.79.58,88.07-13.98Z"/>
      <path class="cls-1" d="M248.69,364.67l-95.41-41.97-130.14-54.95c-5.47-2.31-10.99,4.69-11.17,8.49-.27,5.97,2.81,8.97,8.47,10.84,80,26.34,158.97,54.11,237.87,83.4,2.3.85,3.28,1.36,5.13,1l-14.76-6.79Z"/>
      <path class="cls-1" d="M489.17,323.6l32.87,1.19,26.95.88,182.92,7.33c6.32.25,10.19-1.63,11.58-7.83.8-3.58-1.88-10.79-7.45-10.59l-95.87,3.45-37.86,1.26-32.48,1.09-29.22,1.05-42.53.58c-3.26.04-6.49.56-8.9,1.6Z"/>
      <path class="cls-1" d="M192.67,381.18l73.92,12.95.61-.74-134.96-32.65-122.86-28.43c-4.42-1.02-9.06,5.12-9.35,8.39s1.88,9.56,6.48,10.29l90.6,14.27,95.56,15.93Z"/>
      <path class="cls-1" d="M742.16,380.41l-96.3-15.36-108.04-16.95-32.12-5.46-.72,1.09,106.04,24.55,108.85,26.01,17.44,4.04c4.41,1.02,8.74-3.51,9.7-7.06.79-2.92-.24-10.13-4.85-10.87Z"/>
      <path class="cls-1" d="M732.16,444.22l-66.88-23.6-102.67-37.12c-17.15-6.2-32.92-12.71-50.72-17.66,13.99,8.06,28.42,12.8,43.2,19.41l122.85,54.96,51.3,22.95c4.55,2.04,9.5-4.32,9.97-7.7.66-4.73-1.7-9.35-7.05-11.24Z"/>
      <path class="cls-1" d="M712.4,504.91l-18.54-10.83-59.37-34.58-77.59-45.35-45.03-26.71-1.01,1.31,45.59,30.98,85.43,58.45,58.37,40.68c2.96,2.06,6.39,4.4,9.62,5.58,5.44,1.98,10.47-3.77,11.09-8.03.88-6.03-3.67-8.65-8.57-11.51Z"/>
      <path class="cls-1" d="M248.18,412.22l-16.02-1.08-14.7-.87-124.29-7.38-84.02-4.44c-5.01-.26-8.79,5.08-9.05,9.03-.2,3.06,3.23,8.92,7.52,9.56l104.44-1.64,61.99-.6,65.96-.53,27.2-.67-19.02-1.39Z"/>
      <path class="cls-1" d="M690.05,566.67l-13.17-11.55-57.21-48.75-57.02-48.96-43.34-37.6-17.2-14.13,23.55,24,62.25,61.54,46.2,45.77,27.86,28.18,17.03,16.92c3.63,3.61,9.92-.28,11.76-3.06,2.49-3.77,3.04-9.08-.71-12.37Z"/>
      <path class="cls-1" d="M638.59,632.89c3.08,4.43,10.9.66,12.89-2.22,2.26-3.25,2.96-8.12-.12-11.93l-57.16-70.84-98.47-120.99-1.14.96,20.8,28.86,39.34,55.64,54.55,78.36,29.29,42.17Z"/>
      <path class="cls-1" d="M21.77,481.99l54.07-10.14,151.25-28.55,49.1-8.93-14.03.36-36.09,4.17-83.01,10.03-123.68,14.98c-5.15.62-7.94,6.39-7.32,10.53.48,3.23,4.65,8.51,9.72,7.56Z"/>
      <path class="cls-1" d="M602.57,674.58c3.14-2.92,4.35-7.14,2.14-11.14l-48.41-87.52-39.51-71.56-33.87-60.57-.92.76,15.03,31.59,48.96,104.81,43.09,92.88c.92,1.98,4.84,3.69,6.68,3.78,2.07.09,5.04-1.4,6.81-3.04Z"/>
      <path class="cls-1" d="M38.68,540.57c3.54,3.74,7,3.5,10.9,2.04l56.01-20.98,88.42-33.69,97.43-36.7c-15.86,2.18-29.63,7.88-44.59,12.42l-65.21,19.81-74.43,22.62-66.17,19.75c-2.56.76-4.97,4.79-5.33,6.94s1.28,6.01,2.98,7.8Z"/>
      <path class="cls-1" d="M549.67,696.74l-50.82-149.15-19.46-56.61-11.24-31.17,7.3,29.05,56.5,212.92c1.15,4.33,2.71,7.8,6.14,9.05,3.89,1.41,8.21.06,10.5-2.66,3.03-3.58,2.78-6.38,1.07-11.42Z"/>
      <path class="cls-1" d="M72.43,597.28c2.4,2.55,7.08,4.17,10.24,2.28l99.53-59.37,87.73-52.2,35.7-20.7c-8.41,1.24-14.55,5.96-21.64,9.5l-24.17,11.97-20.79,10.42-165.71,83.79c-2.25,1.14-3.98,4.9-4.16,6.8-.2,2.18,1.2,5.3,3.26,7.49Z"/>
      <path class="cls-1" d="M491.2,724.57l-15.79-98.67-21.2-137.63-2.82-13.41.46,13.03,2.06,24.26,11.74,131.76,6.85,81.06c.51,6.08,2.95,11.32,10.14,10.98,4.57-.21,9.58-5.03,8.57-11.39Z"/>
      <path class="cls-1" d="M115.24,646c5.56,5.68,10.58,3.39,15.27-.67l62.13-53.81c43.79-37.93,86.88-75.4,132.07-112.02-4.33-.3-6.92,2.73-10.22,4.94l-74.15,54.81-84.87,63.97-39.29,29.74c-4.43,3.36-4.52,9.39-.94,13.04Z"/>
      <path class="cls-1" d="M234.66,601.28l-70.12,75.14c-3.08,3.3.66,9.06,2.86,11.07,2.49,2.27,8.92,3.8,11.7.41l44.59-54.36,52.69-64.3,76.04-88.94c-16.1,13.43-30.58,29.14-45.3,44.56l-19.16,20.07-16.01,17.01-17.95,18.99-19.35,20.34Z"/>
      <path class="cls-1" d="M428.5,741.07l2.41-169.12.59-43.96.32-44.06-1.45,10.33-5.83,70.57-14.22,171.6c-.48,5.76.89,10.09,6.65,11.61,4.43,1.17,8.98-1.33,11.54-6.97Z"/>
      <path class="cls-1" d="M364.21,742.89l12.96-72,22.14-117.8,13.12-65.48-.96-.66-13.93,52.8-17.5,67.49-13.92,54.15-19.02,73.83c-1.46,5.68-1.04,10.39,4.52,13.28,4.06,2.12,11.57.08,12.59-5.62Z"/>
      <path class="cls-1" d="M221.89,707.6c-3.17,4.94,3.22,10.6,6.67,11.38,5.33,1.2,8.7-1.43,11.46-6.29l41.26-72.61,54.13-93.77,33.26-55.49c-10.14,10.54-16.94,22.29-24.91,33.88l-19.53,28.43-14.97,22.28-70.62,106.09-16.75,26.1Z"/>
      <path class="cls-1" d="M301.18,731.35l18.29-50.18,33.67-91.18,20.51-54.53,15.55-41.59-14.66,29.79-39.25,86.63-52.73,118.65c-2.28,5.14,4.06,10.43,7.9,10.89,5.82.69,8.73-2.99,10.72-8.47Z"/>
      <path class="cls-1" d="M115.24,646c-3.57-3.64-3.49-9.68.94-13.04l39.29-29.74,84.87-63.97,74.15-54.81c3.31-2.21,5.9-5.24,10.22-4.94-45.19,36.62-88.28,74.08-132.07,112.02l-62.13,53.81c-4.69,4.07-9.71,6.35-15.27.67Z"/>
      <path class="cls-1" d="M234.66,601.28l19.35-20.34,17.95-18.99,16.01-17.01,19.16-20.07c14.72-15.42,29.2-31.13,45.3-44.56l-76.04,88.94-52.69,64.3-44.59,54.36c-2.78,3.4-9.21,1.86-11.7-.41-2.2-2.01-5.94-7.76-2.86-11.07l70.12-75.14Z"/>
      <path class="cls-1" d="M72.43,597.28c-2.07-2.19-3.47-5.31-3.26-7.49.18-1.9,1.91-5.67,4.16-6.8l165.71-83.79,20.79-10.42,24.17-11.97c7.09-3.54,13.22-8.26,21.64-9.5l-35.7,20.7-87.73,52.2-99.53,59.37c-3.16,1.88-7.83.27-10.24-2.28Z"/>
      <path class="cls-1" d="M242.92,300.66l30.28,29.77-.98,1.04-11.97-10.61-31.62-27.54c-50.83-44.26-103.81-85.07-156.83-126.8-4.13-3.25-3.16-8.76-1.11-12.29,1.62-2.78,8.27-6.8,11.83-3.54l62.1,56.72,43.57,40.45,24.04,23.01,30.69,29.79Z"/>
      <path class="cls-1" d="M262.47,349.41l-31.15-18.65-94.06-53.72-97.85-53.09c-2.27-1.23-4.16-4.71-4.49-6.67-.41-2.4,1.4-6.38,2.96-7.97,5.14-5.25,9.14-3.2,14.1-.01l95.44,61.23,44.09,29.13,71.27,48.12-.32,1.63Z"/>
      <path class="cls-1" d="M241,261.72l-18.16-21.64-60.01-69.66-16.1-18.1-30.93-34.98c-4.19-3.66-4.63-9.3-.77-13.84,2.26-2.73,9.36-5.89,12.89-1.24l65.97,86.87,38.51,51.67,50.25,69.41-1.35,1.19-40.3-49.68Z"/>
      <path class="cls-1" d="M248.69,364.67l14.76,6.79c-1.85.36-2.83-.14-5.13-1-78.9-29.28-157.87-57.06-237.87-83.4-5.66-1.86-8.75-4.87-8.47-10.84.17-3.79,5.7-10.8,11.17-8.49l130.14,54.95,95.41,41.97Z"/>
      <path class="cls-1" d="M192.67,381.18l-95.56-15.93-90.6-14.27c-4.6-.72-6.79-6.88-6.48-10.29s4.94-9.41,9.35-8.39l122.86,28.43,134.96,32.65-.61.74-73.92-12.95Z"/>
      <path class="cls-1" d="M275.78,251.3l22.68,47.04-1.08.84-20.91-37.76-86.54-148.19-23.03-38.07c-3.39-5.6-4.12-11.18,2.24-15.57,3.72-2.56,9.39-2.06,11.88,2.69l6.5,12.38,32.67,64.41,55.59,112.21Z"/>
      <path class="cls-1" d="M221.89,707.6l16.75-26.1,70.62-106.09,14.97-22.28,19.53-28.43c7.96-11.59,14.77-23.33,24.91-33.88l-33.26,55.49-54.13,93.77-41.26,72.61c-2.76,4.86-6.13,7.49-11.46,6.29-3.45-.78-9.85-6.44-6.67-11.38Z"/>
      <path class="cls-1" d="M38.68,540.57c-1.7-1.79-3.34-5.62-2.98-7.8s2.78-6.18,5.33-6.94l66.17-19.75,74.43-22.62,65.21-19.81c14.95-4.54,28.73-10.24,44.59-12.42l-97.43,36.7-88.42,33.69-56.01,20.98c-3.9,1.46-7.36,1.71-10.9-2.04Z"/>
      <path class="cls-1" d="M21.77,481.99c-5.07.95-9.24-4.33-9.72-7.56-.61-4.14,2.17-9.9,7.32-10.53l123.68-14.98,83.01-10.03,36.09-4.17,14.03-.36-49.1,8.93-151.25,28.55-54.07,10.14Z"/>
      <path class="cls-1" d="M311.46,280.97l-16.14-46.29-8.71-24.53-39.7-108-22.29-59.82c-2.25-6.04-.94-12.01,5.19-14.16s10.94,1.68,12.68,7.78l17.99,63.08,48.67,169.71c1.43,4.08,2.75,7.08,2.3,12.23Z"/>
      <path class="cls-1" d="M549.67,696.74c1.72,5.04,1.96,7.84-1.07,11.42-2.29,2.71-6.61,4.07-10.5,2.66-3.43-1.24-4.99-4.72-6.14-9.05l-56.5-212.92-7.3-29.05,11.24,31.17,19.46,56.61,50.82,149.15Z"/>
      <path class="cls-1" d="M491.2,724.57c1.02,6.36-4,11.18-8.57,11.39-7.2.34-9.63-4.9-10.14-10.98l-6.85-81.06-11.74-131.76-2.06-24.26-.46-13.03,2.82,13.41,21.2,137.63,15.79,98.67Z"/>
      <path class="cls-1" d="M248.18,412.22l19.02,1.39-27.2.67-65.96.53-61.99.6-104.44,1.64c-4.29-.64-7.72-6.5-7.52-9.56.26-3.96,4.05-9.3,9.05-9.03l84.02,4.44,124.29,7.38,14.7.87,16.02,1.08Z"/>
      <path class="cls-1" d="M301.18,731.35c-2,5.48-4.9,9.16-10.72,8.47-3.85-.45-10.19-5.75-7.9-10.89l52.73-118.65,39.25-86.63,14.66-29.79-15.55,41.59-20.51,54.53-33.67,91.18-18.29,50.18Z"/>
      <path class="cls-1" d="M602.57,674.58c-1.76,1.64-4.73,3.13-6.81,3.04-1.84-.08-5.76-1.8-6.68-3.78l-43.09-92.88-48.96-104.81-15.03-31.59.92-.76,33.87,60.57,39.51,71.56,48.41,87.52c2.21,3.99,1,8.21-2.14,11.14Z"/>
      <path class="cls-1" d="M330.18,264.47l.91,10.54-.93-.46-11.82-75.12-26.39-153.29-4.47-29.78c-.74-4.94,6.41-8.84,10.11-8.56,5.06.38,8.17,4.9,8.7,10.23l6.29,63.05,13.12,137.41,4.48,45.99Z"/>
      <path class="cls-1" d="M638.59,632.89l-29.29-42.17-54.55-78.36-39.34-55.64-20.8-28.86,1.14-.96,98.47,120.99,57.16,70.84c3.07,3.81,2.37,8.68.12,11.93-2,2.88-9.82,6.65-12.89,2.22Z"/>
      <path class="cls-1" d="M428.5,741.07c-2.56,5.64-7.11,8.15-11.54,6.97-5.75-1.52-7.12-5.85-6.65-11.61l14.22-171.6,5.83-70.57,1.45-10.33-.32,44.06-.59,43.96-2.41,169.12Z"/>
      <path class="cls-1" d="M364.21,742.89c-1.03,5.7-8.53,7.73-12.59,5.62-5.55-2.9-5.98-7.6-4.52-13.28l19.02-73.83,13.92-54.15,17.5-67.49,13.93-52.8.96.66-13.12,65.48-22.14,117.8-12.96,72Z"/>
      <path class="cls-1" d="M349.45,265.83l-.19-21.6,1.19-30.61,2.91-142.51.88-64.35c1.8-4.04,6.85-7.11,10.28-6.73,4.05.45,9.09,4,8.62,9.18l-15.26,167.35-5.74,65.45-2.7,23.82Z"/>
      <path class="cls-1" d="M379.51,228.78c-3.02,10.84-5.15,20.66-9.23,30.46.23-9.2,3.04-17.21,4.92-25.89l10.57-48.62L420.53,14.87c.91-4.47,1.86-7.96,5.57-9.76,3.42-1.66,7.88-.48,10.1,1.35,4.3,3.55,3.87,7.55,2.59,12.1l-20.3,72.5-16.71,58.41-9.3,32.8-12.97,46.5Z"/>
      <path class="cls-1" d="M429.07,269.53l51.39-51.99,25.04-26.13,30.42-31.54,22.53-23.48,23.53-24.46,22.24-22.84c3.26-3.35,9.08-.58,11.36,1.97,2.66,2.97,4.6,9.06.95,12.32l-28.1,25.08-68.25,60.57-11.19,10.1-78.54,70.74-1.39-.35Z"/>
      <path class="cls-1" d="M690.05,566.67c3.75,3.29,3.2,8.6.71,12.37-1.84,2.78-8.13,6.67-11.76,3.06l-17.03-16.92-27.86-28.18-46.2-45.77-62.25-61.54-23.55-24,17.2,14.13,43.34,37.6,57.02,48.96,57.21,48.75,13.17,11.55Z"/>
      <path class="cls-1" d="M390.24,260.86l4.36-12.36,32.82-77.17,38.12-92.74,20.8-52.14c1.82-4.57,8.06-5.79,11.73-4.19s7.74,6.43,5.54,11.11l-7.74,16.5-71.05,142.57-28.08,57.01-6.49,11.41Z"/>
      <path class="cls-1" d="M476.75,262.11c-8.02,4.81-14.15,10.4-23.34,12.85l35.86-24.94,119.29-83.46,40.38-27.78c5.24-3.6,11.33-2.17,14.18,2.69,3.85,6.55.15,10.83-5.67,14.21l-108.57,63.17-72.14,43.27Z"/>
      <path class="cls-1" d="M412.8,259.78l34.7-52.35,70.65-109.15,29.82-46.33c2.44-3.79,9.27-1.94,11.55.08,3.14,2.8,5.75,8.1,2.69,12.13l-108.15,142.58-19.49,25.74c-7.07,9.17-12.24,19.22-21.77,27.3Z"/>
      <path class="cls-1" d="M712.4,504.91c4.9,2.86,9.45,5.48,8.57,11.51-.62,4.26-5.65,10.01-11.09,8.03-3.23-1.18-6.66-3.52-9.62-5.58l-58.37-40.68-85.43-58.45-45.59-30.98,1.01-1.31,45.03,26.71,77.59,45.35,59.37,34.58,18.54,10.83Z"/>
      <path class="cls-1" d="M467.32,290.21l8.41-4.73,68.26-29.77,146-64.09c5.07-2.22,10.6,4.23,11.22,7.84.89,5.16-2.55,9.26-8.01,11.17l-180.95,63.35c-15.18,5.32-28.61,11.5-44.92,16.22Z"/>
      <path class="cls-1" d="M489.17,323.6c2.42-1.04,5.65-1.56,8.9-1.6l42.53-.58,29.22-1.05,32.48-1.09,37.86-1.26,95.87-3.45c5.56-.2,8.25,7.02,7.45,10.59-1.39,6.21-5.26,8.08-11.58,7.83l-182.92-7.33-26.95-.88-32.87-1.19Z"/>
      <path class="cls-1" d="M568.68,292.19l-88.07,13.98-1.79-.58,235.37-53.4c4.7-1.07,7.61-1.83,11.04,1.44,2.77,2.64,3.89,7.63,2.33,11.06-2.05,4.5-5.67,4.99-10.53,5.7l-148.35,21.8Z"/>
      <path class="cls-1" d="M732.16,444.22c5.35,1.89,7.71,6.51,7.05,11.24-.47,3.39-5.42,9.74-9.97,7.7l-51.3-22.95-122.85-54.96c-14.77-6.61-29.21-11.35-43.2-19.41,17.8,4.95,33.57,11.46,50.72,17.66l102.67,37.12,66.88,23.6Z"/>
      <path class="cls-1" d="M742.16,380.41c4.61.74,5.64,7.95,4.85,10.87-.96,3.55-5.3,8.08-9.7,7.06l-17.44-4.04-108.85-26.01-106.04-24.55.72-1.09,32.12,5.46,108.04,16.95,96.3,15.36Z"/>
    </g>
  </g>
</svg>