<?xml version="1.0" encoding="UTF-8"?>
<svg id="Livello_2" data-name="Livello 2" xmlns="http://www.w3.org/2000/svg" viewBox="0 0 1024 104.51">
  <defs>
    <style>
      .cls-1 {
        fill: #b8922c;
      }
    </style>
  </defs>
  <g id="Livello_2-2" data-name="Livello 2">
    <g id="Livello_1-2" data-name="Livello 1-2">
      <g>
        <path class="cls-1" d="M71.46,97.97c-23.13,11.13-51.24,7.55-71.46-6.88,1.88-5.31,4.29-8.16,7.12-12.01,16.61,10.31,36.1,14.97,54.2,7.89,7.37-2.89,12.78-11.35,8.13-18.25-6.98-10.36-32.2-8.82-52.34-17.49C5.43,46.21.19,35.33,3.8,22.94,11.91-4.95,57.51-5.73,82.69,11.58c-.87,5.18-3.49,8.77-6.05,13.71-14.18-8.89-30.26-13.86-46.49-9.68-7.3,1.88-14.59,8.1-11.65,15.75,7.06,18.36,64.56,5.42,67.73,40.13.94,10.35-3.75,21.18-14.77,26.48Z"/>
        <path class="cls-1" d="M769.31,64.29l-.3,37.6c-5.15.93-9.61.87-14.85.21l-.06-51.44,53.1-.37c6.95-.05,12.69-5.47,15.16-10.21,3.21-6.15,2.59-13.76-2.43-18.8-4.1-4.11-11.04-5.63-16.9-5.63h-48.77l.03-14.06,58.48.89c11.95.18,21.73,8.62,25.06,19,5.77,17.99-2.46,34.93-20.48,40.66l28.3,40.02-18.57-.07-25.51-37.78-32.24-.02h-.02Z"/>
        <path class="cls-1" d="M459.83,101.85c-4.26,1.14-7.98.65-13.48.61l-.6-45.47-68.24-.19-.07,45.46-13.86-.02-.11-100.31,14.02-.02-.05,41.08,68.54-.02.08-41.09,13.73.02.03,99.95h0Z"/>
        <path class="cls-1" d="M179.25,102.02l-.11-52.03,52.08-.22c10.05-.04,17.21-7.95,17.32-16.66s-6.63-16.88-16.71-17.01l-52.35-.7V1.63l57.23.79c16.52.23,27.6,15.93,27.43,30.6-.2,16.65-12.57,29.84-29.93,30.04l-39.66.45-.39,38.42c-5.19.78-9.62.71-14.92.1h0Z"/>
        <polygon class="cls-1" points="1024 101.72 943.3 101.73 943.35 87.18 1023.66 87.22 1024 101.72"/>
        <polygon class="cls-1" points="648.65 101.85 569.92 101.83 569.73 87.19 648.72 87.19 648.65 101.85"/>
        <polygon class="cls-1" points="1023.66 57.23 943.4 56.87 943.37 42.95 1023.64 43.04 1023.66 57.23"/>
        <polygon class="cls-1" points="1023.85 15.53 943.37 15.7 943.36 1.79 1023.75 1.79 1023.85 15.53"/>
        <polygon class="cls-1" points="648.7 15.54 569.76 15.58 569.75 1.79 648.69 1.79 648.7 15.54"/>
        <polygon class="cls-1" points="648.69 56.9 569.77 56.84 569.65 42.97 648.7 42.96 648.69 56.9"/>
      </g>
    </g>
  </g>
</svg>