<?xml version="1.0" encoding="UTF-8"?>
<svg id="Livello_2" data-name="Livello 2" xmlns="http://www.w3.org/2000/svg" viewBox="0 0 1919.64 291.19">
  <g id="Livello_1-2" data-name="Livello 1">
    <g>
      <path d="M83.31,291.19c-12.96,0-24.6-1.39-34.91-4.16-10.31-2.78-19.11-6.61-26.38-11.5-7.28-4.89-12.76-10.64-16.46-17.26-3.71-6.61-5.55-13.88-5.55-21.82,0-6.08,1.12-11.17,3.37-15.27,2.24-4.1,5.49-7.2,9.72-9.32,4.23-2.11,9.38-3.17,15.47-3.17.26,17.2,2.44,31.68,6.55,43.44,4.1,11.77,10.38,20.57,18.84,26.38,8.46,5.82,19.17,8.73,32.13,8.73,16.92,0,30.61-4.96,41.06-14.88,10.44-9.92,15.67-24.53,15.67-43.84,0-11.9-2.18-21.55-6.54-28.96-4.36-7.4-11.38-14.08-21.03-20.03-9.66-5.95-22.28-12.5-37.89-19.64-8.2-3.97-16.6-8.26-25.19-12.89-8.6-4.62-16.53-10.18-23.8-16.66-7.28-6.48-13.09-14.41-17.46-23.8-4.36-9.38-6.54-20.56-6.54-33.52,0-15.87,3.43-29.22,10.31-40.07,6.88-10.84,16.59-19.04,29.16-24.6C56.4,2.78,71.14,0,88.07,0c15.6,0,29.16,2.12,40.66,6.35,11.5,4.23,20.49,9.79,26.98,16.66,6.48,6.88,9.72,14.42,9.72,22.61,0,7.67-2.91,13.69-8.73,18.05-5.82,4.36-13.36,6.54-22.61,6.54,0-21.95-3.57-38.48-10.71-49.59-7.14-11.11-19.04-16.66-35.71-16.66-10.06,0-18.91,2.05-26.58,6.15-7.67,4.1-13.56,10.19-17.65,18.25-4.1,8.07-6.15,18.19-6.15,30.35,0,12.96,2.38,23.41,7.14,31.34,4.76,7.94,11.96,14.75,21.62,20.43,9.65,5.69,21.75,11.97,36.3,18.84,13.22,6.09,25.45,12.43,36.7,19.04,11.24,6.61,20.3,14.94,27.18,24.99,6.87,10.05,10.32,23.28,10.32,39.67s-3.64,30.02-10.91,41.65c-7.28,11.64-17.85,20.63-31.74,26.98-13.89,6.35-30.75,9.52-50.58,9.52Z"/>
      <path d="M232.47,290c-7.14,0-12.5-2.25-16.07-6.74s-5.36-11.24-5.36-20.23,1.78-15.73,5.36-20.23c3.57-4.5,8.93-6.74,16.07-6.74s12.5,2.25,16.07,6.74c3.57,4.5,5.36,11.24,5.36,20.23s-1.78,15.74-5.36,20.23-8.93,6.74-16.07,6.74Z"/>
      <path d="M283.24,287.23v-3.97h5.16c7.14,0,13.15-1.05,18.05-3.17,4.89-2.11,8.53-5.29,10.91-9.52,2.38-4.23,3.57-9.52,3.57-15.87V34.91c0-6.08-1.19-11.11-3.57-15.08-2.38-3.97-6.02-6.94-10.91-8.92-4.9-1.98-10.91-2.98-18.05-2.98h-5.16v-3.97h111.48c33.33,0,57.92,7.34,73.79,22.02,15.87,14.68,23.8,34.98,23.8,60.9,0,11.9-1.85,23.21-5.55,33.92-3.71,10.71-9.72,20.3-18.05,28.76-8.33,8.47-19.31,15.14-32.93,20.04-13.62,4.9-30.22,7.34-49.79,7.34h-24.99v77.76c0,6.35,1.19,11.64,3.57,15.87,2.38,4.23,6.01,7.41,10.91,9.52,4.89,2.12,10.91,3.17,18.05,3.17h5.16v3.97h-115.45ZM382.03,172.97c12.16,0,22.48-1.59,30.95-4.76,8.46-3.17,15.4-8.13,20.83-14.88,5.42-6.74,9.38-15.47,11.9-26.18,2.51-10.71,3.77-23.61,3.77-38.68,0-19.3-2.05-34.84-6.15-46.61-4.1-11.77-10.65-20.36-19.64-25.79-8.99-5.42-20.9-8.13-35.71-8.13h-26.98v165.04h21.03Z"/>
      <path d="M543.48,290c-7.14,0-12.5-2.25-16.07-6.74s-5.36-11.24-5.36-20.23,1.78-15.73,5.36-20.23c3.57-4.5,8.93-6.74,16.07-6.74s12.5,2.25,16.07,6.74c3.57,4.5,5.36,11.24,5.36,20.23s-1.78,15.74-5.36,20.23-8.93,6.74-16.07,6.74Z"/>
      <path d="M594.65,287.23v-3.97h5.16c7.14,0,13.15-1.05,18.05-3.17,4.89-2.11,8.53-5.29,10.91-9.52,2.38-4.23,3.57-9.52,3.57-15.87V34.91c0-6.08-1.19-11.11-3.57-15.08s-6.02-6.94-10.91-8.92c-4.9-1.98-10.91-2.98-18.05-2.98h-5.16v-3.97h115.45v3.97h-5.16c-7.14,0-13.16,1.06-18.05,3.17-4.9,2.12-8.53,5.29-10.91,9.52-2.38,4.23-3.57,9.52-3.57,15.87v100.77h128.54V36.5c0-6.35-1.19-11.64-3.57-15.87-2.38-4.23-5.95-7.4-10.71-9.52-4.76-2.11-10.85-3.17-18.25-3.17h-5.16v-3.97h115.45v3.97h-5.16c-7.14,0-13.09.99-17.85,2.98-4.76,1.98-8.4,4.96-10.91,8.92-2.52,3.97-3.77,9-3.77,15.08v219.78c0,6.35,1.25,11.64,3.77,15.87,2.51,4.23,6.15,7.41,10.91,9.52,4.76,2.12,10.71,3.17,17.85,3.17h5.16v3.97h-115.45v-3.97h5.16c7.4,0,13.49-1.05,18.25-3.17,4.76-2.11,8.33-5.29,10.71-9.52,2.38-4.23,3.57-9.52,3.57-15.87v-113.46h-128.54v113.46c0,6.35,1.19,11.64,3.57,15.87,2.38,4.23,6.01,7.41,10.91,9.52,4.89,2.12,10.91,3.17,18.05,3.17h5.16v3.97h-115.45Z"/>
      <path d="M929.47,290c-7.14,0-12.5-2.25-16.07-6.74s-5.36-11.24-5.36-20.23,1.78-15.73,5.36-20.23c3.57-4.5,8.93-6.74,16.07-6.74s12.5,2.25,16.07,6.74c3.57,4.5,5.36,11.24,5.36,20.23s-1.78,15.74-5.36,20.23-8.93,6.74-16.07,6.74Z"/>
      <path d="M980.25,287.23v-3.97h5.16c7.14,0,13.15-1.05,18.05-3.17,4.89-2.11,8.53-5.29,10.91-9.52,2.38-4.23,3.57-9.52,3.57-15.87V34.91c0-6.08-1.19-11.11-3.57-15.08-2.38-3.97-6.02-6.94-10.91-8.92-4.9-1.98-10.91-2.98-18.05-2.98h-5.16v-3.97h199.55l2.38,69.43h-3.97l-.79-13.09c-.79-13.22-3.04-23.67-6.74-31.34-3.71-7.67-9.46-13.09-17.26-16.26-7.8-3.17-18.45-4.76-31.94-4.76h-63.47v128.93h99.58v3.97h-99.58v142.42h73.39c14.28,0,25.65-1.59,34.12-4.76,8.46-3.18,14.61-8.59,18.45-16.27,3.83-7.67,6.15-18.11,6.94-31.34l.79-13.09h3.97l-2.78,69.43h-212.64Z"/>
      <path d="M1248.02,290c-7.14,0-12.5-2.25-16.07-6.74-3.57-4.49-5.36-11.24-5.36-20.23s1.78-15.73,5.36-20.23c3.57-4.5,8.93-6.74,16.07-6.74s12.5,2.25,16.07,6.74c3.57,4.5,5.36,11.24,5.36,20.23s-1.78,15.74-5.36,20.23-8.93,6.74-16.07,6.74Z"/>
      <path d="M1298.8,287.23v-3.97h5.16c7.14,0,13.15-1.05,18.05-3.17,4.89-2.11,8.53-5.29,10.91-9.52,2.38-4.23,3.57-9.52,3.57-15.87V34.91c0-6.08-1.19-11.11-3.57-15.08-2.38-3.97-6.02-6.94-10.91-8.92-4.9-1.98-10.91-2.98-18.05-2.98h-5.16v-3.97h106.72c23.01,0,42.05,2.85,57.13,8.53,15.07,5.69,26.31,14.08,33.72,25.19,7.4,11.11,11.11,24.6,11.11,40.47s-3.11,27.97-9.32,37.89c-6.22,9.92-14.15,17.66-23.8,23.21-9.66,5.55-19.64,9.79-29.95,12.7l55.94,87.28c5.55,8.47,10.38,15.54,14.48,21.22,4.1,5.69,7.87,10.18,11.31,13.49,3.43,3.31,6.68,5.69,9.72,7.14,3.04,1.46,6.15,2.18,9.32,2.18h1.19v3.97h-5.56c-12.43,0-22.68-.46-30.75-1.39-8.07-.92-14.75-2.58-20.03-4.96-5.3-2.38-9.99-5.88-14.08-10.51-4.1-4.62-8.53-10.64-13.29-18.05l-61.09-97.2h-24.99v99.58c0,6.35,1.19,11.64,3.57,15.87,2.38,4.23,6.01,7.41,10.91,9.52,4.89,2.12,10.91,3.17,18.05,3.17h5.16v3.97h-115.45ZM1404.32,151.15c14.81,0,26.64-2.31,35.51-6.94,8.86-4.62,15.27-12.1,19.24-22.41s5.95-23.93,5.95-40.86-2.05-31.54-6.15-42.25c-4.1-10.71-10.65-18.51-19.64-23.41-8.99-4.89-20.9-7.34-35.71-7.34h-26.98v143.21h27.77Z"/>
      <path d="M1579.66,290c-7.14,0-12.5-2.25-16.07-6.74s-5.36-11.24-5.36-20.23,1.78-15.73,5.36-20.23c3.57-4.5,8.93-6.74,16.07-6.74s12.5,2.25,16.07,6.74c3.57,4.5,5.36,11.24,5.36,20.23s-1.78,15.74-5.36,20.23-8.93,6.74-16.07,6.74Z"/>
      <path d="M1630.44,287.23v-3.97h5.16c7.14,0,13.15-1.05,18.05-3.17,4.89-2.11,8.53-5.29,10.91-9.52,2.38-4.23,3.57-9.52,3.57-15.87V34.91c0-6.08-1.19-11.11-3.57-15.08-2.38-3.97-6.02-6.94-10.91-8.92-4.9-1.98-10.91-2.98-18.05-2.98h-5.16v-3.97h199.55l2.38,69.43h-3.97l-.79-13.09c-.79-13.22-3.04-23.67-6.74-31.34-3.71-7.67-9.46-13.09-17.26-16.26-7.8-3.17-18.45-4.76-31.94-4.76h-63.47v128.93h99.58v3.97h-99.58v142.42h73.39c14.28,0,25.65-1.59,34.12-4.76,8.46-3.18,14.61-8.59,18.45-16.27,3.83-7.67,6.15-18.11,6.94-31.34l.79-13.09h3.97l-2.78,69.43h-212.64Z"/>
      <path d="M1898.21,290c-7.14,0-12.5-2.25-16.07-6.74s-5.36-11.24-5.36-20.23,1.78-15.73,5.36-20.23c3.57-4.5,8.93-6.74,16.07-6.74s12.5,2.25,16.07,6.74c3.57,4.5,5.36,11.24,5.36,20.23s-1.78,15.74-5.36,20.23-8.93,6.74-16.07,6.74Z"/>
    </g>
  </g>
</svg>