<?xml version="1.0" encoding="UTF-8"?>
<svg id="Livello_2" xmlns="http://www.w3.org/2000/svg" version="1.1" viewBox="0 0 1024 104.5">
  <!-- Generator: Adobe Illustrator 30.5.1, SVG Export Plug-In . SVG Version: 2.1.4 Build 3)  -->
  <defs>
    <style>
      .st0 {
        fill: #fff;
      }
    </style>
  </defs>
  <g id="Livello_1-2">
    <g>
      <path class="st0" d="M71.5,98c-23.1,11.1-51.2,7.6-71.5-6.9,1.9-5.3,4.3-8.2,7.1-12,16.6,10.3,36.1,15,54.2,7.9,7.4-2.9,12.8-11.3,8.1-18.2-7-10.4-32.2-8.8-52.3-17.5C5.4,46.2.2,35.3,3.8,22.9,11.9-5,57.5-5.7,82.7,11.6c-.9,5.2-3.5,8.8-6.1,13.7-14.2-8.9-30.3-13.9-46.5-9.7-7.3,1.9-14.6,8.1-11.6,15.8,7.1,18.4,64.6,5.4,67.7,40.1.9,10.3-3.8,21.2-14.8,26.5Z"/>
      <path class="st0" d="M769.3,64.3l-.3,37.6c-5.2.9-9.6.9-14.8.2v-51.4c0,0,53-.4,53-.4,7,0,12.7-5.5,15.2-10.2,3.2-6.2,2.6-13.8-2.4-18.8-4.1-4.1-11-5.6-16.9-5.6h-48.8V1.6s58.5.9,58.5.9c12,.2,21.7,8.6,25.1,19,5.8,18-2.5,34.9-20.5,40.7l28.3,40h-18.6c0,0-25.5-37.8-25.5-37.8h-32.2s0,0,0,0Z"/>
      <path class="st0" d="M459.8,101.8c-4.3,1.1-8,.7-13.5.6l-.6-45.5-68.2-.2v45.5c0,0-13.9,0-13.9,0V1.9c-.1,0,13.9,0,13.9,0v41.1s68.5,0,68.5,0V1.9c0,0,13.8,0,13.8,0v99.9h0Z"/>
      <path class="st0" d="M179.2,102v-52c-.1,0,52-.2,52-.2,10.1,0,17.2-8,17.3-16.7s-6.6-16.9-16.7-17l-52.4-.7V1.6l57.2.8c16.5.2,27.6,15.9,27.4,30.6-.2,16.6-12.6,29.8-29.9,30l-39.7.5-.4,38.4c-5.2.8-9.6.7-14.9,0h0Z"/>
      <polygon class="st0" points="1024 101.7 943.3 101.7 943.3 87.2 1023.7 87.2 1024 101.7"/>
      <polygon class="st0" points="648.7 101.8 569.9 101.8 569.7 87.2 648.7 87.2 648.7 101.8"/>
      <polygon class="st0" points="1023.7 57.2 943.4 56.9 943.4 42.9 1023.6 43 1023.7 57.2"/>
      <polygon class="st0" points="1023.8 15.5 943.4 15.7 943.4 1.8 1023.8 1.8 1023.8 15.5"/>
      <polygon class="st0" points="648.7 15.5 569.8 15.6 569.8 1.8 648.7 1.8 648.7 15.5"/>
      <polygon class="st0" points="648.7 56.9 569.8 56.8 569.7 43 648.7 43 648.7 56.9"/>
    </g>
  </g>
</svg>